<?xml version="1.0" encoding="UTF-8" standalone="no"?>
<svg xmlns:cc="http://creativecommons.org/ns#" xmlns:dc="http://purl.org/dc/elements/1.1/"
    xmlns:inkscape="http://www.inkscape.org/namespaces/inkscape"
    xmlns:rdf="http://www.w3.org/1999/02/22-rdf-syntax-ns#"
    xmlns:sodipodi="http://sodipodi.sourceforge.net/DTD/sodipodi-0.dtd" aria-hidden="true"
    class="svg-inline--fa fa-magnet fa-w-16" data-icon="magnet" data-prefix="fas" focusable="false"
    id="svg4" role="img" version="1.1" viewBox="0 0 512 512" xmlns="http://www.w3.org/2000/svg"
    inkscape:version="0.92.4 (5da689c313, 2019-01-14)" sodipodi:docname="magnet.svg">
    <metadata id="metadata10">
        <rdf:RDF>
            <cc:Work rdf:about="">
                <dc:format>image/svg+xml</dc:format>
                <dc:type rdf:resource="http://purl.org/dc/dcmitype/StillImage" />
                <dc:title></dc:title>
            </cc:Work>
        </rdf:RDF>
    </metadata>
    <defs id="defs8" />
    <sodipodi:namedview bordercolor="#666666" borderopacity="1" gridtolerance="10"
        guidetolerance="10" id="namedview6" objecttolerance="10" pagecolor="#ffffff"
        showgrid="false" inkscape:current-layer="svg4" inkscape:cx="251.4536"
        inkscape:cy="263.20162" inkscape:pageopacity="0" inkscape:pageshadow="2"
        inkscape:window-height="1013" inkscape:window-maximized="1" inkscape:window-width="1920"
        inkscape:window-x="1903" inkscape:window-y="2151" inkscape:zoom="1.3037281" />
    <path style="fill:#ff0000;stroke:none;stroke-width:2.16949153"
        d="M 4.5559448,143.42618 C 1.2470756,139.76992 0.91768255,134.15974 1.5078363,91.511168 2.2429746,38.385007 2.4961007,37.41304 18.418616,26.576271 c 7.026506,-4.782198 8.437194,-4.881356 69.445791,-4.881356 61.180593,0 62.402073,0.08658 69.593643,4.932983 4.02603,2.71314 9.53989,8.227006 12.25303,12.253034 4.7545,7.055196 4.93299,9.023222 4.93299,54.391792 0,42.847096 -0.35608,47.393976 -3.96744,50.662216 -3.53927,3.203 -12.51701,3.59048 -83.189179,3.59048 -74.922105,0 -79.4230839,-0.22248 -82.9315062,-4.09924 z"
        id="path3717" inkscape:connector-curvature="0" />
    <path style="fill:#0000ff;stroke:none;stroke-width:2.16949153"
        d="m 340.94641,143.55799 c -3.10426,-3.43017 -3.59048,-10.22082 -3.59048,-50.145295 0,-43.014917 0.31472,-46.737814 4.59474,-54.353083 2.5271,-4.496375 8.27358,-10.242858 12.76996,-12.769962 7.79479,-4.380916 11.04912,-4.594735 69.93189,-4.594735 60.47252,0 61.9058,0.1015 68.92886,4.881356 15.92252,10.836769 16.17565,11.808736 16.91078,64.934897 0.59016,42.648572 0.26076,48.258752 -3.04811,51.915012 -3.50903,3.87744 -8.01675,4.09924 -83.30846,4.09924 -74.35868,0 -79.83506,-0.26117 -83.18918,-3.96743 z"
        id="path3719" inkscape:connector-curvature="0" />
    <path style="fill:#000000;stroke:none;stroke-width:0.76703107"
        d="m 244.93383,491.49174 c -18.40478,-1.39144 -32.8186,-3.60807 -47.55592,-7.31338 C 132.80977,467.94446 75.063359,428.12822 40.162232,375.7779 19.52004,344.81543 8.521575,316.06546 2.4424745,277.17853 1.4330596,270.72147 1.1173295,261.14082 0.84999391,228.85557 L 0.51654839,188.58644 2.3013102,185.97977 c 0.981619,-1.43367 2.9874506,-3.24578 4.4574037,-4.02692 2.5510853,-1.35565 6.2437251,-1.42024 81.1893751,-1.42024 86.858951,0 81.781041,-0.29042 85.475201,4.88851 1.69354,2.37421 1.71532,2.75632 2.16886,38.06523 0.37753,29.39055 0.69637,36.94922 1.81189,42.95374 6.95043,37.41192 27.59324,62.38181 59.09245,71.47924 5.36799,1.55034 7.81681,1.77223 19.55929,1.77223 15.81232,0 20.81558,-1.09225 33.36586,-7.28398 22.64222,-11.17066 38.24439,-32.73848 44.15439,-61.03732 2.36063,-11.30341 3.00452,-22.78822 3.01146,-53.71497 0.007,-29.10193 0.0139,-29.23653 1.74766,-31.83179 3.7713,-5.64529 -2.01206,-5.28837 85.71241,-5.2897 75.09905,-0.001 78.75276,0.0627 81.30529,1.42096 1.46996,0.78219 3.44359,2.76688 4.38585,4.41043 1.70058,2.96627 1.71325,3.23402 1.71926,36.35413 0.009,48.25929 -1.77416,64.1257 -10.40649,92.60879 -28.02323,92.46493 -117.33728,163.76813 -219.27891,175.05964 -7.70338,0.85326 -30.94315,1.54972 -36.83873,1.10399 z"
        id="path3721" inkscape:connector-curvature="0" />
</svg>
